# xmcd
#
# Track frame offsets:
#	150
#	10498
#	28413
#	43269
#	59045
#	72572
#	85829
#	100677
#	112941
#	126151
#
# Disc length: 1835 seconds
#
# Revision: 1
# Processed by: cddbd v1.5.1PL0 Copyright (c) Steve Scherf et al.
# Submitted via: audiograbber 1.83.01
#
DISCID=8f07290a
DTITLE=Scott Joss - A new reason to care
DYEAR=1900
DGENRE=Country
TTITLE0=I don't mean maybe
TTITLE1=Daddy's honky tonk
TTITLE2=Even if you have to lie
TTITLE3=Free at last
TTITLE4=If I were you
TTITLE5=Lonely sounds
TTITLE6=A new reason to care
TTITLE7=Rose in the snow
TTITLE8=Without making a sound
TTITLE9=You're the reason
EXTD=
EXTT0=
EXTT1=
EXTT2=
EXTT3=
EXTT4=
EXTT5=
EXTT6=
EXTT7=
EXTT8=
EXTT9=
PLAYORDER=
